Coordinates
version=1
nRows=29
nColumns=22
inDegrees=yes

Units are S.I. units (second, meters, Newtons, ...)
If the header above contains a line with 'inDegrees', this indicates whether rotational values are in degrees (yes) or radians (no).

endheader
time	pelvis_tilt	pelvis_list	pelvis_rotation	pelvis_tx	pelvis_ty	pelvis_tz	hip_flexion_r	hip_adduction_r	hip_rotation_r	knee_angle_r	ankle_angle_r	subtalar_angle_r	hip_flexion_l	hip_adduction_l	hip_rotation_l	knee_angle_l	ankle_angle_l	subtalar_angle_l	lumbar_extension	lumbar_bending	lumbar_rotation
      5.94000000	      0.17050777	     -0.67307218	     -5.74774323	      0.01755246	      0.92576580	      0.21952875	     12.62785053	      4.21274821	     -5.33928655	    -19.61997575	      5.76433566	      4.57902193	      4.14466930	     -3.52208059	     -6.63338482	    -53.34390887	     -2.40373765	     10.17874223	     -8.91188473	     -2.89184673	      1.41608534
      5.95000000	      0.11440628	     -0.71533981	     -5.62292354	      0.00994415	      0.92532710	      0.21846280	     13.17049733	      4.15644011	     -5.57113763	    -19.55863122	      5.43729521	      5.30985600	      3.13728344	     -3.15666842	     -6.33634552	    -52.99537449	     -3.57157491	     10.84947169	     -8.74222308	     -2.68011649	      1.05460625
      5.96000000	      0.05019018	     -0.73104822	     -5.47193888	      0.00224078	      0.92482744	      0.21734195	     13.70947695	      4.07110800	     -5.80731284	    -19.45361114	      5.12138196	      5.94049118	      2.17805213	     -2.78163792	     -6.04378927	    -52.55095947	     -4.71029541	     11.31524981	     -8.56963834	     -2.50307891	      0.65150485
      5.97000000	     -0.01059575	     -0.75639981	     -5.32206589	     -0.00560463	      0.92425177	      0.21621205	     14.25485568	      4.00099952	     -6.02082553	    -19.34991986	      4.76942352	      6.50623034	      1.26006697	     -2.45380748	     -5.80608917	    -52.02937489	     -5.78245391	     11.64098194	     -8.41469401	     -2.32109869	      0.26172044
      5.98000000	     -0.06059912	     -0.78570754	     -5.17553579	     -0.01361509	      0.92361405	      0.21508718	     14.80113453	      3.93956091	     -6.23849696	    -19.24599778	      4.38126425	      7.02429066	      0.37201635	     -2.15683884	     -5.59837723	    -51.40798928	     -6.74109629	     11.82860927	     -8.29040207	     -2.14753203	     -0.10249374
      5.99000000	     -0.10864419	     -0.81478941	     -5.01908069	     -0.02179607	      0.92289939	      0.21395139	     15.35142763	      3.88530871	     -6.43581218	    -19.12875232	      3.94840579	      7.40799887	     -0.47171256	     -1.89449327	     -5.42372284	    -50.68018726	     -7.55775472	     11.83006013	     -8.18408585	     -1.98383957	     -0.46991237
      6.00000000	     -0.13644351	     -0.84257905	     -4.86262086	     -0.03015647	      0.92213775	      0.21279975	     15.88807772	      3.83256923	     -6.63693828	    -18.99826275	      3.46173479	      7.74001621	     -1.30191054	     -1.64205027	     -5.24030874	    -49.81566711	     -8.18639413	     11.64108671	     -8.12016521	     -1.83450164	     -0.79896582
      6.01000000	     -0.15715602	     -0.86261609	     -4.69677565	     -0.03870794	      0.92130441	      0.21162796	     16.41858095	      3.77988285	     -6.81189477	    -18.83897422	      2.92248280	      7.93954640	     -2.09904072	     -1.40537988	     -5.06721604	    -48.81534765	     -8.60400584	     11.23056419	     -8.08222302	     -1.70302642	     -1.14665936
      6.02000000	     -0.17614338	     -0.86914716	     -4.51688481	     -0.04747408	      0.92038343	      0.21042514	     16.95538277	      3.71807828	     -6.97074680	    -18.65941420	      2.32649211	      7.99425703	     -2.85783054	     -1.16656142	     -4.86520430	    -47.67149121	     -8.79657302	     10.64897599	     -8.06532288	     -1.59728674	     -1.51386352
      6.03000000	     -0.18147049	     -0.88128475	     -4.33779338	     -0.05646393	      0.91937879	      0.20917658	     17.49408326	      3.66520645	     -7.10620818	    -18.47694206	      1.66843856	      7.93771342	     -3.60051822	     -0.92767734	     -4.61423319	    -46.38550463	     -8.69915544	      9.82736137	     -8.09044497	     -1.49283992	     -1.82388623
      6.04000000	     -0.19185371	     -0.88057219	     -4.15105367	     -0.06570169	      0.91825260	      0.20788681	     18.05959093	      3.60154613	     -7.21883976	    -18.29336145	      0.94283987	      7.76210330	     -4.29825043	     -0.67618394	     -4.31281990	    -44.97788207	     -8.32067480	      8.90340918	     -8.13341032	     -1.41168188	     -2.14036988
      6.05000000	     -0.20291762	     -0.87107385	     -3.95894144	     -0.07518661	      0.91699585	      0.20654655	     18.65144501	      3.52784195	     -7.31078901	    -18.11555477	      0.15118818	      7.48237532	     -4.95535976	     -0.40931621	     -3.94867618	    -43.47559077	     -7.65016276	      7.89238926	     -8.20233463	     -1.34764388	     -2.44214338
      6.06000000	     -0.21901972	     -0.85196104	     -3.76275527	     -0.08493224	      0.91559068	      0.20516332	     19.28132278	      3.44249415	     -7.37810597	    -17.95474856	     -0.71102976	      7.12302497	     -5.55846544	     -0.12565898	     -3.51448483	    -41.91966929	     -6.67602557	      6.87550975	     -8.29211209	     -1.30269070	     -2.73073888
      6.07000000	     -0.23835721	     -0.82860555	     -3.57144461	     -0.09492155	      0.91403007	      0.20373495	     19.95001055	      3.34955366	     -7.42087056	    -17.81487452	     -1.64289349	      6.68411551	     -6.09839849	      0.16401145	     -3.04586355	    -40.36744875	     -5.42586071	      5.83759228	     -8.40638484	     -1.26663740	     -2.98763620
      6.08000000	     -0.25980109	     -0.79535136	     -3.38808149	     -0.10515043	      0.91231214	      0.20228991	     20.66082127	      3.24442365	     -7.43629738	    -17.70254323	     -2.64406283	      6.20339103	     -6.55982284	      0.45920576	     -2.56618887	    -38.87492186	     -3.90819820	      4.83852516	     -8.54403522	     -1.25115338	     -3.22076656
      6.09000000	     -0.27798287	     -0.74859415	     -3.22300787	     -0.11558760	      0.91045600	      0.20083627	     21.40836350	      3.12323355	     -7.42704163	    -17.61785272	     -3.70676985	      5.70912713	     -6.93388965	      0.75949898	     -2.11940670	    -37.49429996	     -2.16431020	      3.87426861	     -8.70808052	     -1.25849215	     -3.41786432
      6.10000000	     -0.29000061	     -0.68927962	     -3.07062224	     -0.12617880	      0.90848914	      0.19938444	     22.17033902	      2.98725297	     -7.39084800	    -17.53162037	     -4.79674881	      5.27088025	     -7.21101254	      1.05737911	     -1.73151243	    -36.26719052	     -0.20477969	      2.99051921	     -8.89468946	     -1.28869208	     -3.59714155
      6.11000000	     -0.27621343	     -0.60161928	     -2.96889368	     -0.13692034	      0.90646020	      0.19796717	     22.96615764	      2.82410451	     -7.32725314	    -17.51733068	     -5.94445090	      4.89262212	     -7.40252986	      1.37780998	     -1.45064500	    -35.21485407	      1.84773670	      2.09559576	     -9.13001017	     -1.35887502	     -3.70835331
      6.12000000	     -0.24006148	     -0.48970622	     -2.89917302	     -0.14772666	      0.90441269	      0.19658637	     23.75089891	      2.63970384	     -7.22669814	    -17.49384927	     -7.09437115	      4.67265003	     -7.50515537	      1.70834739	     -1.28027194	    -34.34224643	      3.99984142	      1.27949108	     -9.39636317	     -1.46420854	     -3.79049321
      6.13000000	     -0.17580283	     -0.34965841	     -2.88058499	     -0.15853972	      0.90240429	      0.19526433	     24.51631213	      2.43585873	     -7.08790943	    -17.46649850	     -8.23920694	      4.64194620	     -7.53483208	      2.05778661	     -1.23722417	    -33.62801484	      6.17026003	      0.52954460	     -9.69313093	     -1.60832977	     -3.82999784
      6.14000000	     -0.08179341	     -0.17855020	     -2.92450869	     -0.16930524	      0.90048297	      0.19402927	     25.26995761	      2.21308589	     -6.91305637	    -17.46957310	     -9.37137256	      4.83958611	     -7.51283178	      2.43680931	     -1.29175830	    -33.02898564	      8.28460980	     -0.19626578	    -10.01622093	     -1.79717855	     -3.80790261
      6.15000000	      0.04225397	      0.03232065	     -3.03883787	     -0.17996334	      0.89868838	      0.19286614	     26.01210051	      1.95909751	     -6.74852170	    -17.51564008	    -10.47299082	      5.34053367	     -7.45462267	      2.85773696	     -1.44291997	    -32.51245769	     10.28165716	     -0.91607360	    -10.35642124	     -2.03510998	     -3.71388848
      6.16000000	      0.19683662	      0.25453559	     -3.21183512	     -0.19048676	      0.89706360	      0.19180965	     26.71304756	      1.71375217	     -6.52994130	    -17.57528934	    -11.52161255	      6.08316166	     -7.36822782	      3.28485864	     -1.65338216	    -32.06460978	     12.15785089	     -1.52662717	    -10.71412405	     -2.29302285	     -3.58986491
      6.17000000	      0.37492095	      0.48656901	     -3.44364129	     -0.20082235	      0.89562934	      0.19083855	     27.38485408	      1.47382127	     -6.29434222	    -17.68097538	    -12.49939003	      7.05232207	     -7.26131480	      3.71907193	     -1.90691002	    -31.65908264	     13.86570205	     -2.06761797	    -11.07382375	     -2.56274378	     -3.42109076
      6.18000000	      0.56889880	      0.71035013	     -3.72889820	     -0.21093646	      0.89440710	      0.18997326	     28.02908272	      1.26081792	     -6.03386315	    -17.85350116	    -13.38767011	      8.15996421	     -7.13868727	      4.14057112	     -2.16905184	    -31.27543411	     15.39728851	     -2.53121899	    -11.42332039	     -2.82901228	     -3.21197199
      6.19000000	      0.77368901	      0.92444387	     -4.04608759	     -0.22080030	      0.89341668	      0.18916935	     28.64109112	      1.06589963	     -5.77277391	    -18.10352630	    -14.15562221	      9.33675448	     -6.99823452	      4.54632576	     -2.41477806	    -30.91409702	     16.74793608	     -2.92668503	    -11.75511236	     -3.08239279	     -2.97683277
      6.20000000	      0.98000121	      1.11009199	     -4.39548770	     -0.23039132	      0.89265998	      0.18844172	     29.23022726	      0.91174188	     -5.49967624	    -18.46280188	    -14.78497819	     10.45959716	     -6.83795608	      4.91397743	     -2.64584797	    -30.57191167	     17.91472222	     -3.25888922	    -12.05747221	     -3.30266211	     -2.71712812
      6.21000000	      1.18725632	      1.26670699	     -4.76474053	     -0.23970766	      0.89215044	      0.18778254	     29.78835746	      0.79863222	     -5.18804605	    -18.94338271	    -15.24223425	     11.39684191	     -6.65681702	      5.23855078	     -2.86685097	    -30.25718241	     18.92120923	     -3.52881213	    -12.33300141	     -3.48753761	     -2.46224549
      6.22000000	      1.39177749	      1.38329665	     -5.12539040	     -0.24873835	      0.89190520	      0.18713308	     30.32362670	      0.71457573	     -4.91165828	    -19.58207185	    -15.51961570	     12.13170384	     -6.45450150	      5.51156677	     -3.03694933	    -29.97249716	     19.74404287	     -3.76318468	    -12.58114432	     -3.62023403	     -2.18163899
